<?xml version="1.0" encoding="utf-8"?>
<!-- Generator: Adobe Illustrator 25.4.1, SVG Export Plug-In . SVG Version: 6.00 Build 0)  -->
<svg version="1.1" id="Layer_1" xmlns="http://www.w3.org/2000/svg" xmlns:xlink="http://www.w3.org/1999/xlink" x="0px" y="0px"
	 viewBox="0 0 432 181" style="enable-background:new 0 0 432 181;" xml:space="preserve">
<style type="text/css">
	.st0{fill:#FFFFFF;}
	.st1{opacity:0.7;}
	.st2{fill:#00AA8E;}
</style>
<path class="st0" d="M68,112.8c0.4,3.1,3.6,5.1,7.7,5.1s7-2,7-4.7c0-2.4-1.8-3.8-6.2-4.8l-4.8-1c-6.8-1.5-10.2-4.9-10.2-10.4
	c0-6.8,5.9-11.4,14.2-11.4c8.6,0,14.1,4.4,14.2,11.2h-7.3c-0.3-3.1-3-5-6.9-5s-6.4,1.8-6.4,4.6c0,2.3,1.8,3.6,6.1,4.6l4.5,1
	c7.4,1.6,10.7,4.8,10.7,10.4c0,7.2-5.8,11.8-15,11.8c-8.9,0-14.6-4.2-14.8-11.2L68,112.8z M107.7,95h7.2v5.1h0.2
	c1.2-3.4,4.5-5.7,8.1-5.6c4.1,0,6.9,2.1,7.9,5.8h0.2c1.4-3.6,4.9-5.9,8.8-5.8c5.6,0,9.3,3.8,9.3,9.5v19.2h-7.5V106
	c0-3.3-1.7-5.1-4.7-5.1s-4.9,2.2-4.9,5.4v17.1h-7.2v-17.7c0-3-1.8-4.9-4.7-4.9s-5,2.3-5,5.5v17h-7.5L107.7,95z M182.2,109.1
	c0,9-4.4,14.5-11.5,14.5c-4.1,0-7.2-1.9-8.8-5.1h-0.1v14h-7.5V95h7.4v4.8h0.2c1.7-3.3,5.1-5.3,8.8-5.2
	C177.8,94.7,182.2,100.2,182.2,109.1L182.2,109.1z M174.5,109.1c0-5.1-2.5-8.4-6.4-8.4s-6.4,3.4-6.4,8.4s2.6,8.4,6.4,8.4
	S174.5,114.3,174.5,109.1L174.5,109.1z M186.4,84.4h7.6v38.9h-7.5L186.4,84.4z M224.9,114.7c-0.8,5.5-5.9,9.1-12.8,9.1
	c-8.6,0-13.9-5.5-13.9-14.5s5.3-14.8,13.6-14.8c8.1,0,13.3,5.4,13.3,14.1v2.3h-19.5v0.5c0,4.1,2.6,6.8,6.6,6.8
	c2.8,0,5.1-1.3,5.8-3.5L224.9,114.7z M205.7,106.2h12.2c-0.1-3.7-2.5-6.1-6-6.1S205.9,102.6,205.7,106.2L205.7,106.2z M240.5,94.5
	c7,0,11.6,3.6,11.8,9h-6.9c-0.2-2.2-2-3.7-4.9-3.7c-2.7,0-4.5,1.2-4.5,3c0,1.4,1.2,2.4,3.8,3l5.3,1.1c5.7,1.3,7.9,3.5,7.9,7.7
	c0,5.5-5.1,9.1-12.5,9.1s-12.1-3.6-12.5-9h7.3c0.4,2.4,2.3,3.7,5.4,3.7s4.8-1.2,4.8-3c0-1.5-1-2.2-3.6-2.9l-5.2-1.2
	c-5.3-1.2-8.1-4-8.1-8.1C228.7,98,233.4,94.5,240.5,94.5L240.5,94.5z M282.5,114.7c-0.8,5.5-5.9,9.1-12.8,9.1
	c-8.6,0-13.9-5.5-13.9-14.5s5.3-14.8,13.6-14.8c8.1,0,13.3,5.4,13.3,14.1v2.3h-19.5v0.5c0,4.1,2.6,6.8,6.6,6.8
	c2.8,0,5.1-1.3,5.8-3.5L282.5,114.7z M263.3,106.2h12.2c-0.1-3.7-2.5-6.1-6-6.1S263.6,102.6,263.3,106.2L263.3,106.2z M286.8,95h7.2
	v5.1h0.1c1.6-3.6,4.5-5.5,8.8-5.5c6.3,0,9.8,4,9.8,10.6v18.2h-7.5v-16.6c0-3.8-1.8-5.9-5.3-5.9s-5.8,2.6-5.8,6.3v16.2h-7.5V95z
	 M329.2,94.5c7,0,11.6,3.6,11.8,9h-7c-0.2-2.2-2-3.7-4.9-3.7c-2.7,0-4.5,1.2-4.5,3c0,1.4,1.2,2.4,3.8,3l5.3,1.2c5.7,1.3,8,3.5,8,7.7
	c0,5.5-5.1,9.1-12.5,9.1s-12.1-3.6-12.5-9h7.3c0.4,2.4,2.3,3.7,5.4,3.7s4.8-1.2,4.8-3c0-1.5-1-2.2-3.5-2.9l-5.2-1.2
	c-5.3-1.2-8.1-4-8.1-8.1C317.4,98,322.1,94.5,329.2,94.5L329.2,94.5z M371.2,114.7c-0.8,5.5-5.9,9.1-12.8,9.1
	c-8.6,0-13.9-5.5-13.9-14.5s5.3-14.8,13.6-14.8c8.1,0,13.3,5.4,13.3,14.1v2.3h-19.5v0.5c0,4.1,2.6,6.8,6.6,6.8
	c2.8,0,5.1-1.3,5.8-3.5L371.2,114.7z M352,106.3h12.2c-0.1-3.7-2.5-6.1-6-6.1S352.3,102.6,352,106.3z M102.9,123.2h-7.7V94.9h7.7
	V123.2z"/>
<g class="st1">
	<rect x="95.9" y="79.6" class="st0" width="6.2" height="6.2"/>
</g>
<circle class="st2" cx="99" cy="82.7" r="4.7"/>
</svg>
