<svg xmlns="http://www.w3.org/2000/svg" version="1.1" xmlns:xlink="http://www.w3.org/1999/xlink" xmlns:svgjs="http://svgjs.com/svgjs" width="1000" height="1000"><rect width="1000" height="1000" rx="100" ry="100" fill="#ffffff"></rect><g transform="matrix(15.313935681470138,0,0,15.313935681470138,28.627890474106266,30.243589988346287)"><svg xmlns="http://www.w3.org/2000/svg" version="1.1" xmlns:xlink="http://www.w3.org/1999/xlink" xmlns:svgjs="http://svgjs.com/svgjs" width="65.3" height="63.5"><svg version="1.1" id="Layer_1" xmlns="http://www.w3.org/2000/svg" xmlns:xlink="http://www.w3.org/1999/xlink" viewBox="0 0 65.3 63.5" xml:space="preserve">
<path style="fill: rgb(17, 24, 32);" d="M16.4,42.3c0.4,3.1,3.6,5.1,7.7,5.1s7-2,7-4.7c0-2.4-1.8-3.8-6.2-4.8l-4.8-1C13.3,35.4,9.9,32,9.9,26.5c0-6.8,5.9-11.4,14.2-11.4c8.6,0,14.1,4.4,14.2,11.2H31c-0.3-3.1-3-5-6.9-5s-6.4,1.8-6.4,4.6c0,2.3,1.8,3.6,6.1,4.6l4.5,1C35.7,33.1,39,36.3,39,41.9c0,7.2-5.8,11.8-15,11.8c-8.9,0-14.6-4.2-14.8-11.2L16.4,42.3z M51.3,52.7h-7.7V24.4h7.7V52.7z"></path>
<circle style="fill: rgb(0, 170, 142);" cx="47.4" cy="12.2" r="4.7"></circle>
</svg></svg></g></svg>