<?xml version="1.0" encoding="utf-8"?>
<!-- Generator: Adobe Illustrator 23.0.3, SVG Export Plug-In . SVG Version: 6.00 Build 0)  -->
<svg version="1.1" id="Layer_1" xmlns="http://www.w3.org/2000/svg" xmlns:xlink="http://www.w3.org/1999/xlink" x="0px" y="0px"
	 viewBox="0 0 317.4 63.2" style="enable-background:new 0 0 317.4 63.2;" xml:space="preserve">
<style type="text/css">
	.st0{fill:#64BD14;}
</style>
<g id="EEfRA2.tif_1_">
	<g id="D6BqID.tif_1_">
		<g>
			<path class="st0" d="M89.1,47.3c-2.2,0-4.3,0-6.5,0c0-0.6,0-1.1,0-1.5c0-5-0.1-10.1-0.1-15.1c0-0.5-0.1-1.1-0.1-1.6
				c-0.7-4.1-2.9-5.5-7-4.5c-0.3,0.1-0.6,0.1-0.8,0.2c-2.1,0.7-2.1,0.7-1.8,2.9c0.2,1.5,0.3,3,0.4,4.5c0,4.7,0,9.4,0,14.1
				c0,0.9-0.2,1.2-1.2,1.2c-1.7-0.1-3.5,0-5.3,0c0-0.6-0.1-1-0.1-1.5c0-5,0-10-0.1-15c0-1.2-0.2-2.4-0.5-3.6c-0.5-2-1.9-3.1-4-3.1
				c-1.4,0-2.7,0.2-4.1,0.2c-0.9,0-0.8,0.7-0.8,1.2c0,3.9,0,7.8,0,11.7c0,3.2,0,6.5,0,9.8c-2.2,0-4.3,0-6.5,0c0-0.5,0-0.9,0-1.3
				c0-8.2,0-16.4,0-24.6c0-1.1,0.4-1.4,1.3-1.6c3.9-0.9,7.9-1.3,11.9-1c2,0.1,3.7,0.8,5.2,2c0.6,0.5,1,0.5,1.6,0.1
				c3.7-2.2,7.6-2.8,11.8-1.8c3.3,0.8,5.8,3.7,6.3,7.3c0.3,2.3,0.4,4.6,0.5,7C89.2,38,89.1,42.6,89.1,47.3z"/>
			<path class="st0" d="M173.2,45.3c0.7-1.8,1.3-3.6,1.9-5.4c1.2,0.5,2.4,1,3.5,1.4c3,1.1,6.1,1.2,9.2,0.7c2-0.3,3.6-1.2,4-3.4
				c0.4-2.2-0.3-4.1-2.3-5.2c-1.6-1-3.4-1.6-5-2.4c-2-0.9-4.2-1.6-6.1-2.8c-6.7-4.1-5.6-14.1,0.5-17.1c6.2-3,12.3-2.1,18.4,0.5
				c-0.7,1.9-1.4,3.7-2.1,5.6c-2.5-1.3-5.1-2-7.7-2c-1.2,0-2.4,0.1-3.6,0.4c-3.1,0.9-4.1,4.8-1.6,6.9c1.4,1.2,3.2,2,4.9,2.8
				c2.8,1.2,5.7,2,8.1,4c3.4,2.8,4.1,6.5,3.4,10.6c-0.6,3.6-2.9,6.1-6.4,7.2c-6.4,2.1-12.7,1.5-18.8-1.3
				C173.6,45.6,173.4,45.5,173.2,45.3z"/>
			<path class="st0" d="M6.1,40.2c2.5,0.7,4.7,1.6,7.1,1.9c2.1,0.3,4.4,0,6.5-0.3c1.8-0.2,3-1.5,3.3-3.3c0.3-1.9-0.2-3.6-1.8-4.6
				c-1.5-1-3.2-1.8-4.9-2.6c-1.9-0.9-4-1.5-5.9-2.5c-3.7-2-5.6-5.1-5.4-9.3c0.3-4.6,2.7-7.7,7-9.2c4.9-1.7,12.3-1,16.4,1.6
				c-0.6,1.7-1.3,3.5-2,5.2c-1.9-0.5-3.6-1.3-5.4-1.5c-2-0.2-4.1-0.3-6,0.2c-3.1,0.7-4.1,4.7-1.6,6.8c1.4,1.2,3.3,2.1,5,2.9
				c2.8,1.3,5.8,2,8.2,4.1c1.7,1.4,2.8,3.2,3.2,5.3c1.3,6.6-1.6,11.4-8.1,12.9c-5.6,1.3-11,0.7-16.3-1.5c-1-0.4-1.1-1-0.7-1.9
				C5.2,42.8,5.7,41.4,6.1,40.2z"/>
			<path class="st0" d="M258.8,47.3c-2.1,0-4.2,0-6.4,0c0-0.5-0.1-0.9-0.1-1.4c0-4.9,0-9.8-0.1-14.7c0-1.1-0.2-2.1-0.4-3.2
				c-0.6-2.4-2.1-3.7-4.6-3.8c-1.5,0-3.1,0.2-4.6,0.2c-0.9,0-0.8,0.7-0.8,1.3c0,5.8,0,11.6,0,17.5c0,1.3,0,2.7,0,4.1
				c-2.2,0-4.3,0-6.5,0c0-0.5,0-0.9,0-1.3c0-8.2,0-16.4,0-24.5c0-1.1,0.4-1.4,1.3-1.6c4.7-1,9.3-1.5,14.1-0.7
				c3.8,0.6,6.8,3.4,7.5,7.2c0.4,1.8,0.5,3.6,0.6,5.4c0.1,4.9,0,9.8,0,14.7C258.9,46.7,258.8,46.9,258.8,47.3z"/>
			<path class="st0" d="M284,19.8c-0.4,1.8-0.8,3.5-1.1,5c-2.1-0.3-4-0.8-6-1c-1.1-0.1-2.3,0.1-3.3,0.4c-2.1,0.7-2.4,3.1-0.7,4.4
				c0.8,0.6,1.9,1.1,2.8,1.5c2,1,4.1,1.7,6.1,2.8c3.1,1.8,3.9,4.7,3.5,8c-0.3,3-2.1,5-4.9,5.9c-5.2,1.7-10.4,1.4-15.6-0.5
				c0.4-1.8,0.7-3.6,1-5.2c2.5,0.4,4.9,1,7.4,1.2c1.2,0.1,2.6,0,3.8-0.3c2-0.5,2.6-2.6,1.1-4.1c-0.6-0.6-1.4-1.1-2.2-1.5
				c-2-1-4.2-1.7-6.1-2.7c-3.9-2-5.3-5.8-3.9-9.9c0.9-2.7,3.1-4.2,5.7-4.9C275.6,18,279.8,18.6,284,19.8z"/>
			<path class="st0" d="M129,6.7c2.1-0.3,4.2-0.7,6.4-1c0,0.6,0.1,1,0.1,1.5c0,9.8,0,19.7,0,29.6c0,0.7,0,1.3,0,2
				c0.1,2.2,0.8,3.1,2.9,3.6c0.4,0.1,0.8,0.2,1.3,0.3c-0.3,1.8-0.6,3.5-0.9,5.3c-2.4-0.1-4.6-0.3-6.6-1.4c-2.1-1.2-2.9-3.1-3.1-5.4
				c-0.1-0.9-0.2-1.8-0.2-2.7c0-10.1,0-20.3,0-30.4C128.9,7.6,129,7.2,129,6.7z"/>
			<path class="st0" d="M35.9,19.3c2.1,0,4.2,0,6.3,0c0,9.4,0,18.6,0,28c-2.1,0-4.2,0-6.3,0C35.9,38,35.9,28.7,35.9,19.3z"/>
			<path class="st0" d="M35,11c0-2.3,1.7-4,4-4c2.2,0,4,1.7,4,4c0,2.3-1.7,4-4,4C36.7,15,35,13.3,35,11z"/>
			<path class="st0" d="M103.6,46.5c0,3.7,0,7.2,0,10.8c-2,0-3.9,0-5.8,0c-0.2,0-0.5-0.4-0.7-0.7c-0.1-0.2,0-0.6,0-0.9
				c0-11.4,0-22.8,0-34.2c0-1.2,0.4-1.6,1.5-1.9c3.8-0.8,7.6-1.2,11.5-1c5.8,0.4,10.1,3.9,11.6,9.5c1.1,4,1,7.9-0.4,11.8
				c-2.3,6.5-8.6,9.4-15.3,7.3C105.2,47.1,104.5,46.8,103.6,46.5z M115.6,33.5c0-0.5,0-1.1,0-1.6c-0.3-4.1-2.3-6.8-6-7.5
				c-1.6-0.3-3.2,0-4.8,0c-1,0-1.2,0.5-1.2,1.4c0,4.3,0,8.6,0,12.8c0,2.4,0,2.5,2.3,3.2c4.1,1.2,8.2,0.3,9.4-4.9
				c0.3-1.1,0.3-2.3,0.5-3.4C115.7,33.5,115.7,33.5,115.6,33.5z"/>
			<path class="st0" d="M228.3,35.3c-6.1,0-12.2,0-18.3,0c-0.1,3.8,2.7,6.6,6.6,7c3.1,0.3,6.1-0.1,9.2-1.2c0.3,1.6,0.5,3.2,0.8,4.8
				c0,0.2-0.2,0.7-0.5,0.7c-5.9,1.8-11.8,2.5-17.3-0.9c-3.7-2.3-5.2-6.2-5.6-10.4c-0.4-4.7,0.4-9.1,3.7-12.8
				c4.4-4.8,12.3-5.5,17.2-1.5c2.7,2.2,3.8,5.3,4.1,8.6C228.5,31.5,228.3,33.3,228.3,35.3z M221.9,30.5c0.2-3.4-1.9-6.1-4.8-6.4
				c-3.9-0.4-6.5,2-7.1,6.4C214,30.5,217.9,30.5,221.9,30.5z"/>
			<path class="st0" d="M166.1,41.1c0.3,1.7,0.6,3.2,0.8,4.7c0,0.2-0.2,0.6-0.4,0.8c-4.4,2.6-14,1.8-18-1.3c-2.9-2.3-4.4-5.4-4.8-9
				c-0.6-4.9,0-9.7,3.4-13.6c3.7-4.1,8.5-5.1,13.7-3.6c4.7,1.4,7,5,7.7,9.6c0.3,2.1,0.3,4.2,0.4,6.5c-6.4,0-12.4,0-18.5,0
				c-0.3,2.7,1.6,5.6,4.2,6.5c3.4,1.2,6.8,0.7,10.2-0.2C165.2,41.4,165.6,41.3,166.1,41.1z M156.8,24c-3.6,0-6.4,2.8-6.4,6.5
				c3.9,0,7.9,0,11.9,0C162.4,26.7,160,24,156.8,24z"/>
			<path class="st0" d="M314.7,35.2c-5.9,0-11.9,0-17.8,0c-0.5,2.5,1.4,5.5,4.1,6.5c3.5,1.2,7,0.7,10.5-0.3c0.3-0.1,0.6-0.2,1-0.3
				c0.3,1.8,0.5,3.4,0.9,5.4c-1.4,0.3-2.7,0.8-4.1,1c-3,0.6-6.1,0.8-9.1,0.1c-4.4-1-7.6-3.5-9.1-7.8c-2-5.8-1.8-11.4,2-16.5
				c4.3-5.9,13.8-6.6,18.7-1.5c1.6,1.7,2.8,3.8,3,6.2C314.8,30.4,314.7,32.8,314.7,35.2z M308.6,30.4c0-3.9-2.2-6.4-5.5-6.4
				c-3.6-0.1-6.2,2.5-6.4,6.4C300.7,30.4,304.7,30.4,308.6,30.4z"/>
		</g>
	</g>
</g>
</svg>
